<?xml version="1.0" encoding="utf-8"?>
<!-- Generator: Adobe Illustrator 24.1.3, SVG Export Plug-In . SVG Version: 6.00 Build 0)  -->
<svg version="1.1" xmlns="http://www.w3.org/2000/svg" xmlns:xlink="http://www.w3.org/1999/xlink" x="0px" y="0px"
	 viewBox="0 0 689.14 629.23" style="enable-background:new 0 0 689.14 629.23;" xml:space="preserve">
<style type="text/css">
	.st0{fill:url(#SVGID_1_);}
	.st1{fill:url(#SVGID_2_);}
	.st2{fill:#F58634;}
	.st3{fill:#A63890;}
	.st4{fill:#FFFFFF;}
	.st5{fill:#BF5073;}
	.st6{fill:url(#SVGID_5_);}
	.st7{fill:url(#SVGID_6_);}
	.st8{fill:none;stroke:#F58634;stroke-linecap:round;stroke-linejoin:round;stroke-miterlimit:10;}
</style>
<g id="Layer_3">
	<linearGradient id="SVGID_1_" gradientUnits="userSpaceOnUse" x1="0" y1="314.6135" x2="689.1426" y2="314.6135">
		<stop  offset="0" style="stop-color:#A6388F"/>
		<stop  offset="0.3152" style="stop-color:#A6388F"/>
		<stop  offset="0.4374" style="stop-color:#AB3D89"/>
		<stop  offset="0.6029" style="stop-color:#BA4C78"/>
		<stop  offset="0.7931" style="stop-color:#D3645B"/>
		<stop  offset="1" style="stop-color:#F58634"/>
	</linearGradient>
	<rect y="0" class="st0" width="689.14" height="629.23"/>
</g>
<g id="Layer_1">
	<g>
		<path class="st4" d="M611.98,413.5l9.36,12.88h-5.58L607.13,414h-0.82v12.37h-4.56v-30.23h5.34c3.99,0,6.88,0.75,8.65,2.25
			c1.96,1.67,2.94,3.88,2.94,6.62c0,2.14-0.61,3.98-1.84,5.52C615.61,412.08,613.99,413.06,611.98,413.5z M606.31,410.03h1.45
			c4.32,0,6.48-1.65,6.48-4.95c0-3.09-2.1-4.64-6.3-4.64h-1.62V410.03z"/>
	</g>
	<g>
		<path class="st4" d="M91.55,487.37H71.31l20.87-77.87h32.22c8.74,0,14.83,2.27,18.26,6.82c3.43,4.54,4.04,10.95,1.82,19.21
			c-2.21,8.26-6.25,14.67-12.12,19.21c-5.86,4.54-13.17,6.82-21.91,6.82H98.47L91.55,487.37z M102.84,445.24h6.71
			c7.44,0,12.02-3.23,13.76-9.71c1.73-6.47-1.12-9.71-8.55-9.71h-6.71L102.84,445.24z"/>
		<path class="st4" d="M181.23,401.66l-22.97,85.72h-18.69l22.97-85.72H181.23z"/>
		<path class="st4" d="M226.17,434.4h18.8l-14.2,52.98h-18.8l1.58-5.89c-5.34,5.02-11.42,7.54-18.24,7.54
			c-3.85,0-7.21-0.7-10.07-2.12c-2.86-1.41-5.16-3.39-6.88-5.94c-1.73-2.55-2.8-5.54-3.22-8.98c-0.42-3.44-0.09-7.2,1-11.26
			c1.01-3.78,2.63-7.38,4.86-10.79c2.22-3.41,4.84-6.38,7.87-8.93c3.02-2.55,6.35-4.56,9.98-6.04c3.63-1.48,7.41-2.22,11.34-2.22
			c6.61,0,11.46,2.31,14.56,6.92L226.17,434.4z M195.56,460.73c-0.46,1.72-0.58,3.32-0.36,4.8c0.22,1.48,0.72,2.77,1.49,3.88
			c0.77,1.1,1.82,1.96,3.13,2.58c1.32,0.62,2.83,0.93,4.55,0.93c1.65,0,3.3-0.31,4.95-0.93c1.65-0.62,3.15-1.48,4.51-2.58
			c1.36-1.1,2.56-2.38,3.6-3.82c1.04-1.45,1.79-2.99,2.23-4.64c0.44-1.66,0.53-3.22,0.28-4.7c-0.26-1.48-0.77-2.77-1.54-3.87
			c-0.77-1.1-1.81-1.96-3.13-2.58c-1.31-0.62-2.8-0.93-4.45-0.93c-1.72,0-3.4,0.31-5.05,0.93c-1.64,0.62-3.15,1.48-4.51,2.58
			c-1.36,1.1-2.54,2.36-3.54,3.77C196.73,457.55,196.01,459.08,195.56,460.73z"/>
		<path class="st4" d="M257.66,434.4h18.69l-1.8,6.71c3.38-3.1,6.52-5.18,9.42-6.25c2.9-1.07,6.11-1.6,9.62-1.6
			c3.72,0,6.74,0.6,9.07,1.81c2.33,1.21,4.12,2.91,5.39,5.12c1.03,1.79,1.53,3.79,1.49,5.99c-0.04,2.21-0.44,4.72-1.19,7.54
			l-9.02,33.67h-18.69l7.17-26.75c0.7-2.62,1.08-4.73,1.14-6.35c0.05-1.61-0.27-2.91-0.98-3.87c-0.6-0.83-1.37-1.41-2.32-1.76
			c-0.94-0.34-1.99-0.52-3.16-0.52c-3.17,0-5.85,0.95-8.04,2.84c-2.2,1.89-3.76,4.6-4.7,8.11l-7.58,28.3h-18.69L257.66,434.4z"/>
		<path class="st4" d="M335.13,464.04c-2.16,8.06,0.55,12.08,8.12,12.08c4.06,0,7.57-1.65,10.52-4.96h18.07
			c-6.9,12.12-17.64,18.17-32.24,18.17c-4.48,0-8.39-0.67-11.75-2.01c-3.36-1.34-6.03-3.25-8.02-5.73
			c-1.98-2.48-3.24-5.44-3.76-8.88c-0.53-3.44-0.22-7.3,0.93-11.56c1.18-4.41,2.93-8.39,5.26-11.93c2.33-3.54,5.09-6.56,8.31-9.03
			c3.21-2.48,6.8-4.39,10.78-5.73c3.97-1.34,8.24-2.01,12.78-2.01c4.47,0,8.32,0.67,11.54,2.01c3.22,1.34,5.73,3.29,7.52,5.83
			c1.8,2.55,2.85,5.66,3.18,9.35c0.32,3.69-0.14,7.83-1.37,12.45l-0.52,1.96H335.13z M359.93,453.19c0.08-2.61-0.63-4.72-2.14-6.3
			c-1.5-1.58-3.63-2.38-6.38-2.38c-2.89,0-5.45,0.76-7.68,2.27c-2.23,1.51-3.96,3.65-5.17,6.4H359.93z"/>
		<path class="st4" d="M410.47,449.99l-10.02,37.39h-18.69l10.02-37.39h-6.2l4.18-15.59h6.2l4.26-15.91h18.69l-4.26,15.91h10.64
			l-4.18,15.59H410.47z"/>
		<path class="st4" d="M474.23,434.4h18.8l-14.2,52.98h-18.8l1.58-5.89c-5.34,5.02-11.42,7.54-18.24,7.54
			c-3.85,0-7.21-0.7-10.07-2.12c-2.86-1.41-5.16-3.39-6.88-5.94c-1.73-2.55-2.8-5.54-3.22-8.98c-0.42-3.44-0.09-7.2,1-11.26
			c1.01-3.78,2.63-7.38,4.86-10.79c2.22-3.41,4.84-6.38,7.87-8.93c3.02-2.55,6.35-4.56,9.98-6.04c3.63-1.48,7.41-2.22,11.34-2.22
			c6.61,0,11.46,2.31,14.56,6.92L474.23,434.4z M443.63,460.73c-0.46,1.72-0.58,3.32-0.36,4.8c0.22,1.48,0.72,2.77,1.49,3.88
			c0.77,1.1,1.82,1.96,3.13,2.58c1.32,0.62,2.83,0.93,4.55,0.93c1.65,0,3.3-0.31,4.95-0.93c1.65-0.62,3.15-1.48,4.51-2.58
			c1.36-1.1,2.56-2.38,3.6-3.82c1.04-1.45,1.79-2.99,2.23-4.64c0.44-1.66,0.53-3.22,0.28-4.7c-0.26-1.48-0.77-2.77-1.54-3.87
			c-0.77-1.1-1.81-1.96-3.13-2.58c-1.31-0.62-2.8-0.93-4.45-0.93c-1.72,0-3.4,0.31-5.05,0.93c-1.64,0.62-3.15,1.48-4.51,2.58
			c-1.36,1.1-2.54,2.36-3.54,3.77C444.79,457.55,444.07,459.08,443.63,460.73z"/>
		<path class="st4" d="M505.73,434.4h18.69l-2.32,8.68c2.85-3.17,5.94-5.59,9.28-7.28c3.35-1.69,6.94-2.53,10.8-2.53
			c0.48,0,1.02,0,1.6,0c0.59,0,1.24,0.07,1.96,0.2l-4.79,17.87c-2.15-1.24-4.67-1.86-7.56-1.86c-4.34,0-7.94,1.29-10.8,3.87
			c-2.86,2.58-4.96,6.35-6.29,11.31l-6.09,22.72h-18.69L505.73,434.4z"/>
		<path class="st4" d="M564,480.15l-13.35-45.75h21.69l6.87,27.16l21.02-27.16h21.48l-63.83,79.42h-20.97L564,480.15z"/>
	</g>
	<g>
		<path class="st4" d="M177.84,513.48c-0.11-2.83-0.23-5.71-0.37-8.65c0.58,0.09,1.14,0.17,1.67,0.23c0.54,0.07,1.07,0.1,1.6,0.1
			s1.07-0.03,1.61-0.1c0.54-0.07,1.09-0.14,1.67-0.23c-0.13,2.94-0.26,5.83-0.37,8.65c-0.11,2.83-0.17,5.71-0.17,8.65v11.49
			c0,2.94,0.06,5.84,0.17,8.69c0.11,2.85,0.23,5.66,0.37,8.42c-1.03-0.09-2.12-0.13-3.28-0.13s-2.25,0.04-3.27,0.13
			c0.13-2.76,0.25-5.57,0.37-8.42s0.17-5.75,0.17-8.69v-6.01c-2.41-0.04-4.74-0.08-6.99-0.1c-2.25-0.02-4.58-0.03-6.98-0.03
			c-2.41,0-4.73,0.01-6.98,0.03c-2.25,0.02-4.58,0.06-6.98,0.1v6.01c0,2.94,0.06,5.84,0.17,8.69c0.11,2.85,0.23,5.66,0.37,8.42
			c-1.03-0.09-2.12-0.13-3.28-0.13s-2.25,0.04-3.27,0.13c0.13-2.76,0.25-5.57,0.37-8.42s0.17-5.75,0.17-8.69v-11.49
			c0-2.94-0.06-5.82-0.17-8.65c-0.11-2.83-0.23-5.71-0.37-8.65c0.58,0.09,1.14,0.17,1.67,0.23c0.54,0.07,1.07,0.1,1.6,0.1
			s1.07-0.03,1.61-0.1c0.54-0.07,1.09-0.14,1.67-0.23c-0.13,2.94-0.26,5.83-0.37,8.65c-0.11,2.83-0.17,5.71-0.17,8.65v2.34
			c2.41,0.05,4.73,0.09,6.98,0.13c2.25,0.05,4.58,0.07,6.98,0.07c2.41,0,4.73-0.02,6.98-0.07c2.25-0.04,4.58-0.09,6.99-0.13v-2.34
			C178.01,519.2,177.96,516.31,177.84,513.48z"/>
		<path class="st4" d="M192.38,535.9c0-5.48,1.3-9.78,3.91-12.9c2.61-3.12,6.4-4.68,11.39-4.68c2.36,0,4.4,0.37,6.12,1.1
			c1.71,0.74,3.15,1.72,4.31,2.94c1.16,1.22,2.02,2.66,2.58,4.31c0.56,1.65,0.84,3.41,0.84,5.28c0,0.45-0.01,0.88-0.03,1.3
			c-0.02,0.42-0.06,0.86-0.1,1.3c-2.41-0.04-4.79-0.09-7.15-0.13c-2.36-0.04-4.75-0.07-7.15-0.07c-1.47,0-2.93,0.02-4.38,0.07
			s-2.91,0.09-4.38,0.13c-0.04,0.22-0.07,0.56-0.07,1v0.87c0,1.74,0.25,3.37,0.77,4.88c0.51,1.51,1.26,2.82,2.24,3.91
			c0.98,1.09,2.18,1.96,3.61,2.61c1.43,0.65,3.08,0.97,4.95,0.97c0.89,0,1.81-0.12,2.74-0.37c0.94-0.25,1.84-0.58,2.74-1
			c0.89-0.42,1.73-0.92,2.51-1.5c0.78-0.58,1.46-1.2,2.04-1.87l0.34,0.2l-0.4,3.27c-1.34,1.07-2.99,1.98-4.98,2.74
			c-1.98,0.76-4.04,1.14-6.18,1.14c-2.41,0-4.6-0.37-6.58-1.1c-1.98-0.74-3.7-1.81-5.14-3.21c-1.45-1.4-2.56-3.06-3.34-4.98
			C192.76,540.2,192.38,538.13,192.38,535.9z M207.81,520.47c-1.65,0-3.04,0.38-4.18,1.14c-1.14,0.76-2.07,1.7-2.81,2.84
			c-0.74,1.14-1.29,2.38-1.67,3.74c-0.38,1.36-0.61,2.64-0.7,3.84c1.38,0.04,2.81,0.09,4.31,0.13c1.49,0.05,2.95,0.07,4.38,0.07
			c1.47,0,2.96-0.02,4.48-0.07c1.51-0.04,2.98-0.09,4.41-0.13c0-1.2-0.1-2.47-0.3-3.81c-0.2-1.34-0.6-2.58-1.2-3.74
			c-0.6-1.16-1.44-2.11-2.51-2.87C210.95,520.85,209.55,520.47,207.81,520.47z"/>
		<path class="st4" d="M229.2,522.2c2.01-1.51,3.85-2.54,5.55-3.07c1.69-0.54,3.43-0.8,5.21-0.8c1.61,0,3.08,0.23,4.41,0.7
			c1.34,0.47,2.47,1.14,3.41,2c0.94,0.87,1.67,1.92,2.21,3.14c0.54,1.23,0.8,2.57,0.8,4.04c0,2.54-0.04,5.07-0.13,7.59
			c-0.09,2.52-0.13,5.18-0.13,7.99c0,0.53,0.01,1.1,0.03,1.7c0.02,0.6,0.12,1.14,0.3,1.6c0.18,0.47,0.44,0.86,0.77,1.17
			c0.33,0.31,0.84,0.47,1.51,0.47c0.22,0,0.46-0.01,0.7-0.03c0.25-0.02,0.48-0.1,0.7-0.23v1.47c-0.49,0.22-1.11,0.4-1.84,0.54
			c-0.74,0.13-1.55,0.2-2.44,0.2c-1.43,0-2.52-0.37-3.28-1.1s-1.21-1.68-1.34-2.84c-1.61,1.61-3.18,2.78-4.75,3.54
			c-1.56,0.76-3.48,1.14-5.75,1.14c-1.11,0-2.21-0.16-3.27-0.47c-1.07-0.31-2.02-0.82-2.84-1.54c-0.83-0.71-1.49-1.57-2.01-2.57
			c-0.51-1-0.77-2.15-0.77-3.44c0-2.67,0.84-4.74,2.51-6.21c1.67-1.47,3.98-2.45,6.92-2.94c2.41-0.4,4.29-0.75,5.65-1.04
			c1.36-0.29,2.36-0.59,3.01-0.9c0.65-0.31,1.04-0.68,1.17-1.1c0.13-0.42,0.2-0.97,0.2-1.64c0-1.11-0.13-2.18-0.4-3.21
			c-0.27-1.02-0.69-1.92-1.27-2.67c-0.58-0.76-1.34-1.37-2.27-1.84c-0.94-0.47-2.07-0.7-3.41-0.7c-1.78,0-3.45,0.4-4.98,1.2
			c-1.54,0.8-2.68,1.92-3.44,3.34h-0.74V522.2z M245.7,534.1c-0.76,0.27-1.64,0.49-2.64,0.67c-1,0.18-2.01,0.37-3.04,0.57
			c-1.03,0.2-2.04,0.46-3.04,0.77c-1,0.31-1.9,0.74-2.68,1.27c-0.78,0.54-1.4,1.2-1.87,2.01c-0.47,0.8-0.7,1.83-0.7,3.07
			c0,2.09,0.6,3.68,1.81,4.74c1.2,1.07,2.54,1.61,4.01,1.61c1.69,0,3.24-0.47,4.65-1.41c1.4-0.94,2.48-2.03,3.24-3.27L245.7,534.1z"
			/>
		<path class="st4" d="M263.64,514.65c-0.02-1.78-0.06-3.54-0.1-5.28c-0.04-1.74-0.1-3.4-0.17-4.98c-0.07-1.58-0.15-2.93-0.23-4.04
			c1.25,0.22,2.25,0.33,3.01,0.33c0.76,0,1.76-0.11,3.01-0.33c-0.09,1.11-0.17,2.46-0.23,4.04c-0.07,1.58-0.13,3.24-0.17,4.98
			c-0.04,1.74-0.08,3.5-0.1,5.28c-0.02,1.78-0.03,3.43-0.03,4.94v12.09c0,1.52,0.01,3.17,0.03,4.95s0.06,3.54,0.1,5.28
			c0.04,1.74,0.1,3.39,0.17,4.95c0.07,1.56,0.14,2.85,0.23,3.87c-1.02-0.09-2.03-0.13-3.01-0.13s-1.98,0.04-3.01,0.13
			c0.09-1.02,0.17-2.31,0.23-3.87c0.07-1.56,0.12-3.21,0.17-4.95c0.04-1.74,0.08-3.5,0.1-5.28s0.03-3.43,0.03-4.95V519.6
			C263.68,518.08,263.67,516.43,263.64,514.65z"/>
		<path class="st4" d="M286.6,510.04c-0.13,1.69-0.23,3.35-0.3,4.98c-0.07,1.62-0.14,3.26-0.23,4.91c0.49,0,1.41-0.01,2.74-0.03
			c1.34-0.02,2.78-0.08,4.35-0.17c-0.05,0.13-0.07,0.38-0.07,0.74v0.67v0.74c0,0.31,0.02,0.54,0.07,0.67
			c-0.58-0.05-1.18-0.08-1.81-0.1c-0.63-0.02-1.29-0.03-2.01-0.03h-3.28c-0.04,0.18-0.1,0.89-0.17,2.14
			c-0.07,1.25-0.12,2.73-0.17,4.44c-0.05,1.72-0.08,3.51-0.1,5.38c-0.03,1.87-0.03,3.54-0.03,5.01c0,1.25,0.03,2.47,0.1,3.68
			c0.07,1.2,0.28,2.28,0.64,3.24c0.36,0.96,0.89,1.72,1.61,2.3c0.71,0.58,1.74,0.87,3.07,0.87c0.36,0,0.84-0.04,1.44-0.13
			c0.6-0.09,1.13-0.2,1.57-0.33v1.6c-0.76,0.13-1.59,0.3-2.51,0.5c-0.91,0.2-1.79,0.3-2.64,0.3c-2.81,0-4.88-0.69-6.22-2.07
			c-1.34-1.38-2.01-3.41-2.01-6.08c0-1.2,0.02-2.51,0.07-3.91c0.04-1.4,0.1-2.94,0.17-4.61c0.07-1.67,0.12-3.52,0.17-5.55
			c0.05-2.03,0.07-4.29,0.07-6.78h-2.14c-0.36,0-0.74,0.01-1.14,0.03c-0.4,0.02-0.82,0.05-1.27,0.1c0.04-0.27,0.08-0.52,0.1-0.77
			c0.02-0.24,0.03-0.5,0.03-0.77c0-0.22-0.01-0.44-0.03-0.67c-0.02-0.22-0.06-0.45-0.1-0.67c2.01,0.13,3.48,0.2,4.41,0.2
			c-0.04-0.89-0.08-2.01-0.1-3.34c-0.02-1.34-0.08-2.72-0.17-4.14l5.55-2.34H286.6z"/>
		<path class="st4" d="M299.6,514.65c-0.02-1.78-0.06-3.54-0.1-5.28c-0.05-1.74-0.1-3.4-0.17-4.98c-0.07-1.58-0.14-2.93-0.23-4.04
			c1.24,0.22,2.25,0.33,3.01,0.33c0.76,0,1.76-0.11,3.01-0.33c-0.09,1.11-0.17,2.45-0.23,4.01c-0.07,1.56-0.12,3.2-0.17,4.91
			c-0.04,1.71-0.08,3.44-0.1,5.18c-0.02,1.74-0.03,3.34-0.03,4.81v5.08h0.13c1.24-1.91,2.74-3.4,4.48-4.44
			c1.74-1.05,3.81-1.57,6.21-1.57c1.25,0,2.51,0.18,3.78,0.54c1.27,0.36,2.42,0.97,3.44,1.84c1.03,0.87,1.86,2.05,2.51,3.54
			c0.65,1.49,0.97,3.4,0.97,5.71c0,1.91-0.04,3.89-0.13,5.91c-0.09,2.03-0.13,4.18-0.13,6.45v4.34c0,0.71,0.01,1.41,0.03,2.1
			c0.02,0.69,0.06,1.35,0.1,1.97c-0.89-0.09-1.83-0.13-2.81-0.13c-0.94,0-1.85,0.04-2.74,0.13c0.09-2.31,0.19-4.7,0.3-7.15
			c0.11-2.45,0.17-4.97,0.17-7.55v-4.08c0-3.34-0.65-5.87-1.94-7.59c-1.3-1.71-3.08-2.57-5.35-2.57c-3.12,0-5.4,0.96-6.85,2.87
			c-1.45,1.91-2.17,4.61-2.17,8.09c0,1.25,0.01,2.7,0.03,4.34c0.02,1.65,0.06,3.31,0.1,4.98c0.04,1.67,0.1,3.29,0.17,4.84
			c0.07,1.56,0.14,2.83,0.23,3.81c-1.03-0.09-2.03-0.13-3.01-0.13c-0.98,0-1.98,0.04-3.01,0.13c0.09-1.02,0.17-2.31,0.23-3.87
			c0.07-1.56,0.12-3.21,0.17-4.95c0.04-1.74,0.08-3.5,0.1-5.28c0.02-1.78,0.03-3.43,0.03-4.95V519.6
			C299.63,518.08,299.62,516.43,299.6,514.65z"/>
		<path class="st4" d="M356.26,544.49c0.6,0.82,1.34,1.57,2.21,2.24c0.87,0.67,1.88,1.21,3.04,1.64c1.16,0.42,2.45,0.64,3.87,0.64
			c1.47,0,2.8-0.26,3.98-0.77c1.18-0.51,2.18-1.2,3.01-2.07c0.82-0.87,1.46-1.89,1.9-3.07c0.45-1.18,0.67-2.44,0.67-3.78
			c0-2.05-0.53-3.67-1.57-4.88c-1.05-1.2-2.35-2.21-3.91-3.01c-1.56-0.8-3.24-1.54-5.04-2.2c-1.81-0.67-3.49-1.51-5.05-2.51
			c-1.56-1-2.86-2.28-3.91-3.84c-1.05-1.56-1.57-3.65-1.57-6.28c0-1.87,0.33-3.58,1-5.11c0.67-1.54,1.64-2.86,2.91-3.97
			c1.27-1.11,2.8-1.98,4.58-2.61c1.78-0.62,3.79-0.94,6.02-0.94c2.14,0,3.99,0.26,5.55,0.77c1.56,0.51,3.01,1.3,4.34,2.37
			c-0.4,0.76-0.74,1.56-1,2.41c-0.27,0.85-0.54,1.92-0.8,3.21h-0.8c-0.22-0.62-0.53-1.3-0.9-2.04c-0.38-0.74-0.89-1.41-1.54-2.04
			c-0.64-0.62-1.41-1.15-2.31-1.57c-0.89-0.42-1.96-0.64-3.21-0.64c-1.25,0-2.39,0.2-3.44,0.6c-1.05,0.4-1.96,0.97-2.74,1.7
			c-0.78,0.74-1.38,1.61-1.8,2.64c-0.43,1.03-0.64,2.14-0.64,3.34c0,2.09,0.52,3.74,1.57,4.95c1.04,1.2,2.35,2.22,3.91,3.04
			c1.56,0.83,3.24,1.56,5.05,2.21c1.81,0.65,3.48,1.44,5.05,2.37c1.56,0.94,2.86,2.14,3.91,3.61c1.05,1.47,1.57,3.43,1.57,5.88
			c0,2.05-0.37,3.99-1.1,5.81c-0.74,1.83-1.81,3.42-3.21,4.78c-1.4,1.36-3.12,2.41-5.14,3.14c-2.03,0.74-4.33,1.1-6.92,1.1
			c-2.76,0-5-0.37-6.72-1.1c-1.71-0.74-3.15-1.57-4.31-2.51c0.4-1.02,0.68-1.95,0.84-2.77c0.16-0.82,0.3-1.88,0.44-3.17h0.8
			C355.18,542.85,355.66,543.66,356.26,544.49z"/>
		<path class="st4" d="M408.09,524.37c-1.3-1.71-3.08-2.57-5.35-2.57c-3.12,0-5.4,0.96-6.85,2.87c-1.45,1.91-2.17,4.61-2.17,8.09
			v5.68c0,2.01,0.03,4.11,0.1,6.31c0.07,2.21,0.21,4.2,0.44,5.98c-1.03-0.09-2.03-0.13-3.01-0.13c-0.98,0-1.98,0.04-3.01,0.13
			c0.22-1.78,0.37-3.77,0.43-5.98c0.07-2.21,0.1-4.31,0.1-6.31v-6.95c0-2.01-0.03-4.11-0.1-6.31c-0.07-2.21-0.21-4.27-0.43-6.18
			c1.24,0.22,2.25,0.33,3.01,0.33c0.36,0,0.74-0.03,1.17-0.1c0.42-0.07,0.92-0.14,1.5-0.23c-0.13,1.78-0.2,3.57-0.2,5.35h0.13
			c1.24-1.91,2.74-3.4,4.48-4.44c1.74-1.05,3.81-1.57,6.21-1.57c1.25,0,2.51,0.18,3.78,0.54c1.27,0.36,2.42,0.97,3.44,1.84
			c1.03,0.87,1.86,2.05,2.51,3.54c0.65,1.49,0.97,3.4,0.97,5.71c0,1.91-0.04,3.89-0.13,5.91c-0.09,2.03-0.13,4.18-0.13,6.45v4.34
			c0,0.71,0.01,1.41,0.03,2.1c0.02,0.69,0.06,1.35,0.1,1.97c-0.89-0.09-1.83-0.13-2.81-0.13c-0.94,0-1.85,0.04-2.74,0.13
			c0.09-2.31,0.19-4.7,0.3-7.15c0.11-2.45,0.17-4.97,0.17-7.55v-4.08C410.02,528.62,409.38,526.09,408.09,524.37z"/>
		<path class="st4" d="M426.06,522.2c2.01-1.51,3.85-2.54,5.55-3.07c1.69-0.54,3.43-0.8,5.21-0.8c1.61,0,3.08,0.23,4.41,0.7
			c1.34,0.47,2.47,1.14,3.41,2c0.94,0.87,1.67,1.92,2.21,3.14c0.54,1.23,0.8,2.57,0.8,4.04c0,2.54-0.04,5.07-0.13,7.59
			c-0.09,2.52-0.13,5.18-0.13,7.99c0,0.53,0.01,1.1,0.03,1.7c0.02,0.6,0.12,1.14,0.3,1.6c0.18,0.47,0.44,0.86,0.77,1.17
			c0.33,0.31,0.84,0.47,1.51,0.47c0.22,0,0.46-0.01,0.7-0.03c0.25-0.02,0.48-0.1,0.7-0.23v1.47c-0.49,0.22-1.11,0.4-1.84,0.54
			c-0.74,0.13-1.55,0.2-2.44,0.2c-1.43,0-2.52-0.37-3.28-1.1c-0.76-0.74-1.21-1.68-1.34-2.84c-1.61,1.61-3.18,2.78-4.75,3.54
			c-1.56,0.76-3.48,1.14-5.75,1.14c-1.11,0-2.21-0.16-3.27-0.47c-1.07-0.31-2.02-0.82-2.84-1.54c-0.83-0.71-1.49-1.57-2.01-2.57
			c-0.51-1-0.77-2.15-0.77-3.44c0-2.67,0.84-4.74,2.51-6.21c1.67-1.47,3.98-2.45,6.92-2.94c2.41-0.4,4.29-0.75,5.65-1.04
			c1.36-0.29,2.36-0.59,3.01-0.9c0.65-0.31,1.04-0.68,1.17-1.1c0.13-0.42,0.2-0.97,0.2-1.64c0-1.11-0.13-2.18-0.4-3.21
			c-0.27-1.02-0.69-1.92-1.27-2.67c-0.58-0.76-1.34-1.37-2.27-1.84c-0.94-0.47-2.07-0.7-3.41-0.7c-1.78,0-3.45,0.4-4.98,1.2
			c-1.54,0.8-2.68,1.92-3.44,3.34h-0.74V522.2z M442.57,534.1c-0.76,0.27-1.64,0.49-2.64,0.67c-1,0.18-2.01,0.37-3.04,0.57
			c-1.03,0.2-2.04,0.46-3.04,0.77c-1.01,0.31-1.9,0.74-2.68,1.27c-0.78,0.54-1.4,1.2-1.87,2.01c-0.47,0.8-0.7,1.83-0.7,3.07
			c0,2.09,0.6,3.68,1.81,4.74c1.2,1.07,2.54,1.61,4.01,1.61c1.69,0,3.24-0.47,4.65-1.41c1.4-0.94,2.48-2.03,3.24-3.27L442.57,534.1z
			"/>
		<path class="st4" d="M456.53,534.97c0-2.9,0.49-5.39,1.47-7.49s2.26-3.82,3.84-5.18c1.58-1.36,3.4-2.36,5.45-3.01
			s4.15-0.97,6.28-0.97c2.45,0,4.65,0.3,6.58,0.9c1.94,0.6,3.33,1.28,4.18,2.04c-0.31,0.67-0.59,1.37-0.84,2.11
			c-0.24,0.74-0.46,1.5-0.64,2.3h-0.54c-0.31-0.58-0.74-1.17-1.27-1.77c-0.53-0.6-1.17-1.16-1.9-1.67
			c-0.74-0.51-1.55-0.94-2.44-1.27c-0.89-0.33-1.87-0.5-2.94-0.5c-2.01,0-3.73,0.37-5.18,1.1c-1.45,0.74-2.63,1.75-3.54,3.04
			c-0.91,1.29-1.58,2.82-2.01,4.58c-0.42,1.76-0.64,3.67-0.64,5.71c0,4.59,0.98,8.05,2.94,10.39c1.96,2.34,4.83,3.51,8.62,3.51
			c0.89,0,1.81-0.12,2.74-0.37c0.94-0.25,1.85-0.58,2.74-1c0.89-0.42,1.73-0.92,2.51-1.5c0.78-0.58,1.46-1.2,2.04-1.87l0.33,0.2
			c-0.22,1.07-0.36,2.16-0.4,3.27c-1.34,1.07-3,1.98-4.98,2.74c-1.98,0.76-4.05,1.14-6.18,1.14c-1.92,0-3.84-0.28-5.78-0.84
			c-1.94-0.56-3.68-1.49-5.25-2.81c-1.56-1.31-2.81-3.02-3.77-5.11C457.01,540.56,456.53,538,456.53,534.97z"/>
		<path class="st4" d="M491.52,514.65c-0.02-1.78-0.06-3.54-0.1-5.28c-0.04-1.74-0.1-3.4-0.17-4.98c-0.07-1.58-0.14-2.93-0.23-4.04
			c1.25,0.22,2.25,0.33,3.01,0.33c0.76,0,1.76-0.11,3.01-0.33c-0.09,1.11-0.17,2.46-0.23,4.04c-0.07,1.58-0.13,3.24-0.17,4.98
			c-0.04,1.74-0.08,3.5-0.1,5.28c-0.02,1.78-0.03,3.43-0.03,4.94v12.16c0,0.85,0.27,1.27,0.8,1.27c0.36,0,0.74-0.16,1.17-0.47
			c0.42-0.31,0.9-0.67,1.44-1.07c0.4-0.31,1.08-0.91,2.04-1.8c0.96-0.89,2.03-1.93,3.21-3.11c1.18-1.18,2.39-2.44,3.64-3.78
			c1.24-1.34,2.38-2.61,3.41-3.81c0.89,0.22,1.74,0.33,2.54,0.33c0.49,0,0.98-0.03,1.47-0.1c0.49-0.07,1.11-0.14,1.87-0.23
			c-2.81,2.27-5.49,4.51-8.05,6.72c-2.56,2.21-5,4.44-7.32,6.72c2.54,3.07,5.16,6.15,7.85,9.22c2.69,3.07,5.45,6.1,8.25,9.09
			c-0.76-0.09-1.44-0.13-2.04-0.13c-0.6,0-1.19,0-1.77,0c-0.49,0-1.02,0-1.6,0s-1.18,0.04-1.81,0.13c-0.98-1.11-2.09-2.41-3.34-3.91
			c-1.25-1.49-2.48-2.97-3.71-4.44c-1.23-1.47-2.4-2.85-3.51-4.14c-1.11-1.29-2.07-2.36-2.87-3.21c-0.13-0.18-0.29-0.33-0.47-0.47
			c-0.18-0.13-0.36-0.2-0.54-0.2c-0.44,0-0.67,0.27-0.67,0.8v4.01c0,2,0.03,3.95,0.1,5.85c0.07,1.89,0.21,3.8,0.44,5.71
			c-1.03-0.09-2.03-0.13-3.01-0.13s-1.98,0.04-3.01,0.13c0.09-1.02,0.17-2.31,0.23-3.87c0.07-1.56,0.12-3.21,0.17-4.95
			c0.04-1.74,0.08-3.5,0.1-5.28s0.03-3.43,0.03-4.95V519.6C491.55,518.08,491.54,516.43,491.52,514.65z"/>
		<path class="st4" d="M525.13,545.99c0.47,0.54,1.03,1.04,1.67,1.51c0.65,0.47,1.38,0.86,2.21,1.17c0.83,0.31,1.71,0.47,2.64,0.47
			c0.84,0,1.66-0.13,2.44-0.4c0.78-0.27,1.47-0.65,2.07-1.14c0.6-0.49,1.08-1.11,1.44-1.87c0.36-0.76,0.54-1.62,0.54-2.61
			c0-1.38-0.39-2.44-1.17-3.17c-0.78-0.74-1.75-1.34-2.91-1.8c-1.16-0.47-2.43-0.88-3.81-1.24c-1.38-0.35-2.65-0.86-3.81-1.5
			c-1.16-0.64-2.13-1.5-2.91-2.57c-0.78-1.07-1.17-2.54-1.17-4.41c0-1.47,0.24-2.82,0.74-4.04c0.49-1.22,1.2-2.28,2.14-3.17
			c0.94-0.89,2.1-1.59,3.48-2.1c1.38-0.51,2.96-0.77,4.75-0.77c1.64,0,3.04,0.22,4.18,0.67c1.14,0.45,2.21,0.85,3.24,1.2
			c-0.36,0.67-0.69,1.49-1,2.47c-0.31,0.98-0.51,1.74-0.6,2.27h-0.8c-0.36-1.07-1.05-2.03-2.07-2.87c-1.03-0.85-2.3-1.27-3.81-1.27
			c-0.67,0-1.34,0.11-2.01,0.33c-0.67,0.22-1.27,0.56-1.8,1c-0.54,0.45-0.98,1.03-1.34,1.74c-0.36,0.71-0.54,1.56-0.54,2.54
			c0,1.43,0.39,2.53,1.17,3.31c0.78,0.78,1.75,1.39,2.91,1.84c1.16,0.45,2.43,0.84,3.81,1.17c1.38,0.34,2.65,0.8,3.81,1.41
			c1.16,0.6,2.13,1.44,2.91,2.51c0.78,1.07,1.17,2.54,1.17,4.41c0,1.29-0.28,2.56-0.84,3.81c-0.56,1.25-1.36,2.37-2.41,3.37
			c-1.04,1-2.3,1.78-3.77,2.34c-1.47,0.55-3.14,0.84-5.01,0.84c-2.05,0-3.77-0.2-5.15-0.6c-1.38-0.4-2.54-0.87-3.48-1.4
			c0.27-0.58,0.54-1.37,0.84-2.37c0.29-1,0.44-1.84,0.44-2.51h0.8C524.31,544.97,524.66,545.46,525.13,545.99z"/>
	</g>
</g>
<g id="Layer_2">
	
		<image style="overflow:visible;" width="4242" height="6000" xlink:href="A4 -  BANG BANG - back to bookings .png"  transform="matrix(0.0741 0 0 0.0741 158.0186 23.1162)">
	</image>
	<circle class="st4" cx="454.73" cy="104.33" r="19.27"/>
	<path class="st4" d="M442.71,161.45c0,0,57.33-33.22,94.34-45.92s69.15-19.8,22.13,34.67c-56.73,65.72-83.82,96.68-209.73,157.84
		c-74.13,36.01-114.06,49.15-189.77,55.88c-62.77,5.58-90.78-8.83-45.72-50.8c35.8-33.34,59.51-46.81,59.51-46.81
		s-53.7,46.97-44.99,61.12c8.71,14.15,70.43,27.37,218.19-44.79c117.81-57.53,173.68-122.4,166.91-135.46
		C506.81,134.12,442.71,161.45,442.71,161.45z"/>
</g>
<g id="Layer_4">
</g>
</svg>
